#!OML:ASF H:\Male1\Project 1\Capture day 1\Session 1\Male1.ASF
:FULLY-SPECIFIED
:DEGREES
293
root 0.27892 25.436 2.99283 21.9376 -74.4927 -19.4321
lowerback 11.1517 1.90143 0.696895
upperback 5.30827 2.40164 -0.242049
thorax -0.675959 1.13773 -0.915581
lowerneck -11.2384 4.6811 8.68482
upperneck 21.6052 5.38882 -4.10914
head 8.97818 2.7172 -2.2597
rclavicle 3.18055e-014 -1.19271e-014
rhumerus -17.1324 48.2791 -87.6178
rradius 42.7403
rwrist 0.240159
rhand -46.9965 52.4738
rfingers 7.12502
rthumb -19.7039 23.4524
lclavicle 3.18055e-014 -1.19271e-014
lhumerus -28.5332 -18.8451 84.4952
lradius 104.249
lwrist 5.65838
lhand -46.9603 2.34734
lfingers 7.12502
lthumb -19.6691 31.3723
rfemur -11.8518 3.75457 26.7261
rtibia 37.5302
rfoot -24.2616 -22.2616
rtoes -13.4759
lfemur -9.45129 -4.4832 -21.7982
ltibia 34.3525
lfoot -26.2874 10.0749
ltoes -0.235305
294
root 0.284289 25.4359 2.99849 21.8308 -74.5978 -19.3084
lowerback 11.2431 1.88904 0.721678
upperback 5.3184 2.38689 -0.22139
thorax -0.7151 1.12966 -0.9094
lowerneck -11.2321 4.76853 8.75742
upperneck 21.8143 5.50955 -4.17863
head 9.06241 2.77164 -2.2824
rclavicle -2.68359e-014 2.70347e-014
rhumerus -17.0947 48.4022 -87.496
rradius 42.8174
rwrist 0.23842
rhand -47.0767 52.9945
rfingers 7.12502
rthumb -19.781 23.9811
lclavicle -2.68359e-014 2.70347e-014
lhumerus -28.6136 -18.8251 84.495
lradius 104.292
lwrist 5.78322
lhand -47.0199 2.25541
lfingers 7.12502
lthumb -19.7265 31.2745
rfemur -11.9343 3.60573 26.6055
rtibia 37.6032
rfoot -24.1126 -22.1962
rtoes -13.9201
lfemur -9.49416 -4.34093 -21.8771
ltibia 34.3779
lfoot -26.1619 10.0263
ltoes -0.533717
295
root 0.290655 25.4363 3.00467 21.4758 -74.6932 -18.9081
lowerback 11.3043 1.86791 0.708757
upperback 5.33107 2.35635 -0.234923
thorax -0.735655 1.11375 -0.914482
lowerneck -11.2624 4.84963 8.82935
upperneck 22.0785 5.61215 -4.22029
head 9.17103 2.8198 -2.29719
rclavicle -2.20651e-014 -9.54166e-015
rhumerus -17.0132 48.5508 -87.3694
rradius 42.8599
rwrist 0.207602
rhand -47.1665 53.5321
rfingers 7.12502
rthumb -19.8674 24.5276
lclavicle -2.20651e-014 -9.54166e-015
lhumerus -28.6671 -18.786 84.511
lradius 104.304
lwrist 5.88048
lhand -47.0705 2.06635
lfingers 7.12502
lthumb -19.7751 31.0804
rfemur -12.062 3.39031 26.3927
rtibia 37.7213
rfoot -23.9846 -22.0366
rtoes -14.2364
lfemur -9.54157 -4.21504 -22.0307
ltibia 34.3583
lfoot -26.0652 9.97553
ltoes -0.696923
296
root 0.297783 25.4368 3.00977 21.0121 -74.7939 -18.3988
lowerback 11.3685 1.84932 0.672435
upperback 5.34261 2.32625 -0.276581
thorax -0.758763 1.09798 -0.935655
lowerneck -11.335 4.92078 8.89873
upperneck 22.4393 5.68604 -4.21424
head 9.31853 2.85843 -2.29829
rclavicle -2.5842e-015 -9.54166e-015
rhumerus -16.8994 48.7111 -87.257
rradius 42.8722
rwrist 0.154397
rhand -47.3373 53.8812
rfingers 7.12502
rthumb -20.0316 24.8938
lclavicle -2.5842e-015 -9.54166e-015
lhumerus -28.7103 -18.7393 84.5223
lradius 104.305
lwrist 5.97479
lhand -47.0897 1.81428
lfingers 7.12502
lthumb -19.7935 30.8264
rfemur -12.2061 3.17609 26.1421
rtibia 37.8692
rfoot -23.9066 -21.8039
rtoes -14.3441
lfemur -9.57788 -4.09338 -22.2125
ltibia 34.3106
lfoot -26.0258 9.91358
ltoes -0.744894
297
root 0.305763 25.4377 3.0122 20.6445 -74.9076 -18.0007
lowerback 11.4555 1.84155 0.637935
upperback 5.34847 2.31028 -0.330698
thorax -0.799233 1.08927 -0.973226
lowerneck -11.437 4.98273 8.96842
upperneck 22.9036 5.73129 -4.15913
head 9.50562 2.88815 -2.28597
rclavicle -3.99557e-014 -3.97569e-015
rhumerus -16.7628 48.8774 -87.1665
rradius 42.8657
rwrist 0.0772201
rhand -47.4283 54.1328
rfingers 7.12502
rthumb -20.119 25.1546
lclavicle -3.99557e-014 -3.97569e-015
lhumerus -28.7536 -18.6904 84.5116
lradius 104.319
lwrist 6.1078
lhand -47.0629 1.52812
lfingers 7.12502
lthumb -19.7678 30.5429
rfemur -12.3533 3.01637 25.9244
rtibia 38.0309
rfoot -23.8798 -21.5528
rtoes -14.4211
lfemur -9.6086 -3.96259 -22.3566
ltibia 34.2579
lfoot -26.043 9.8598
ltoes -0.922868
298
root 0.314867 25.4385 3.01146 20.5269 -75.0264 -17.876
lowerback 11.5806 1.84448 0.644514
upperback 5.3443 2.31245 -0.390805
thorax -0.868396 1.09006 -1.04365
lowerneck -11.5528 5.03406 9.03833
upperneck 23.46 5.74508 -4.05163
head 9.72586 2.90843 -2.25959
rclavicle -5.96354e-015 -7.15625e-015
rhumerus -16.6175 49.0389 -87.1134
rradius 42.8534
rwrist -0.0222905
rhand -47.4837 54.2534
rfingers 7.12502
rthumb -20.1722 25.2808
lclavicle -5.96354e-015 -7.15625e-015
lhumerus -28.7975 -18.6498 84.4575
lradius 104.358
lwrist 6.29407
lhand -46.9952 1.23067
lfingers 7.12502
lthumb -19.7027 30.2522
rfemur -12.4941 2.90759 25.7903
rtibia 38.1989
rfoot -23.8984 -21.3387
rtoes -14.908
lfemur -9.64186 -3.8218 -22.414
ltibia 34.2213
lfoot -26.0871 9.85109
ltoes -1.56137
299
root 0.325248 25.4392 3.00776 20.651 -75.1401 -18.0084
lowerback 11.7279 1.85249 0.6715
upperback 5.33654 2.32346 -0.442278
thorax -0.952536 1.09526 -1.11854
lowerneck -11.6647 5.08125 9.10453
upperneck 24.0717 5.74457 -3.9189
head 9.96553 2.92456 -2.22585
rclavicle 2.72335e-014 -2.38542e-015
rhumerus -16.4577 49.229 -87.0695
rradius 42.8557
rwrist -0.162686
rhand -47.4795 54.3229
rfingers 7.12502
rthumb -20.1682 25.3498
lclavicle 2.72335e-014 -2.38542e-015
lhumerus -28.8294 -18.6113 84.365
lradius 104.424
lwrist 6.52271
lhand -46.9124 0.954044
lfingers 7.12502
lthumb -19.6231 29.9837
rfemur -12.6336 2.80357 25.7369
rtibia 38.3848
rfoot -23.9903 -21.173
rtoes -16.0492
lfemur -9.68686 -3.67353 -22.387
ltibia 34.2084
lfoot -26.1395 9.90216
ltoes -2.77124
